<?xml version="1.0" standalone="no"?>
<!DOCTYPE svg PUBLIC "-//W3C//DTD SVG 20010904//EN"
 "http://www.w3.org/TR/2001/REC-SVG-20010904/DTD/svg10.dtd">
<svg version="1.0" xmlns="http://www.w3.org/2000/svg"
 width="517.000000pt" height="709.000000pt" viewBox="0 0 517.000000 709.000000"
 preserveAspectRatio="xMidYMid meet">

<g transform="translate(0.000000,709.000000) scale(0.100000,-0.100000)"
fill="#000000" stroke="none">
<path d="M0 3545 l0 -3545 2585 0 2585 0 0 3545 0 3545 -2585 0 -2585 0 0
-3545z m1967 1956 c76 -16 163 -32 193 -36 30 -4 86 -13 123 -21 188 -39 696
-101 972 -119 256 -17 539 -64 650 -107 124 -48 323 -190 408 -291 112 -132
178 -261 215 -422 32 -137 42 -262 42 -514 0 -215 -1 -230 -17 -225 -10 3 -45
16 -78 29 -76 29 -159 53 -255 75 -54 12 -95 30 -148 64 -147 96 -314 161
-472 184 -84 12 -303 8 -357 -7 -61 -17 -102 -55 -109 -102 -4 -21 -12 -43
-18 -47 -17 -14 -324 -24 -371 -12 -22 5 -107 19 -190 30 -82 11 -163 27 -180
34 -16 8 -43 19 -60 26 -16 7 -39 16 -50 21 -11 5 -42 17 -70 27 l-50 18 3 47
c5 84 -39 133 -163 180 -260 98 -463 112 -714 47 -85 -22 -137 -30 -162 -26
-20 3 -114 6 -208 7 -94 0 -170 3 -167 7 4 8 52 156 116 362 55 178 142 356
219 452 117 146 218 223 378 290 159 66 304 75 520 29z m-285 -1278 c62 -15
118 -28 123 -28 6 0 12 -2 15 -5 5 -6 142 -49 170 -54 8 -2 29 -8 45 -15 17
-7 73 -27 125 -46 52 -18 128 -45 168 -60 l72 -27 0 -44 c0 -38 -4 -45 -28
-58 -26 -13 -33 -13 -65 2 -21 9 -40 24 -43 35 -3 10 -18 23 -32 30 -15 6 -40
20 -56 31 -30 20 -41 25 -307 119 -86 30 -175 66 -199 79 -23 12 -61 33 -84
45 -53 29 -40 29 96 -4z m-477 -93 c17 -4 53 -8 82 -8 126 -1 558 -109 676
-169 111 -56 198 -141 196 -190 0 -10 -9 0 -18 22 -34 73 -86 105 -241 143
-164 41 -228 47 -475 47 -227 0 -244 -2 -310 -24 -38 -13 -82 -26 -96 -27 -85
-10 -309 -192 -344 -279 -17 -42 -27 -194 -15 -235 5 -19 13 -70 16 -112 9
-101 27 -118 48 -46 8 29 20 76 26 103 6 28 14 61 19 75 4 14 14 43 21 65 25
81 81 183 129 237 39 43 160 108 201 108 15 0 47 7 71 16 58 21 274 29 387 14
100 -13 253 -48 266 -61 6 -5 18 -9 28 -9 10 0 41 -11 68 -25 27 -14 56 -25
65 -25 8 0 15 -4 15 -8 0 -5 10 -14 23 -21 12 -6 36 -20 52 -30 40 -26 41 -26
54 11 6 17 13 29 15 27 9 -9 -14 -149 -36 -215 -26 -82 -127 -285 -183 -369
-51 -77 -164 -196 -223 -235 -115 -76 -292 -94 -506 -51 -345 69 -512 189
-565 404 -27 110 -8 405 40 607 46 199 105 258 269 269 98 7 202 3 245 -9z
m1425 -179 c0 -5 -7 -14 -15 -21 -8 -7 -15 -10 -15 -7 0 3 -3 12 -6 21 -4 12
0 16 15 16 12 0 21 -4 21 -9z m685 -11 c3 -5 43 -10 88 -11 118 -1 69 -14
-103 -28 -257 -21 -355 -33 -377 -47 -30 -19 -46 -18 -66 6 -10 12 -22 18 -27
15 -6 -4 -7 3 -1 17 7 20 17 24 72 29 35 4 116 8 179 9 63 1 129 6 145 10 44
11 83 11 90 0z m390 -194 c156 -19 257 -36 271 -47 6 -5 13 -6 16 -4 6 6 181
-35 238 -55 220 -79 252 -185 175 -575 -69 -352 -138 -470 -318 -549 -85 -38
-178 -50 -344 -43 -206 7 -366 43 -468 105 -88 53 -172 153 -218 257 -27 64
-67 201 -67 235 0 20 76 87 132 116 l29 15 -8 -38 c-10 -47 -10 -139 0 -176 9
-33 34 -46 162 -79 80 -20 112 -23 289 -22 198 0 200 1 215 24 41 61 53 187
27 273 -8 26 -10 47 -5 47 5 0 33 -12 61 -27 64 -34 135 -102 172 -165 32 -56
56 -55 56 1 0 75 -110 197 -231 258 -117 59 -228 84 -369 86 -113 1 -133 -2
-208 -28 -144 -49 -301 -159 -317 -223 -9 -36 -14 -24 -30 74 -17 103 -20 240
-5 249 6 4 10 -5 10 -19 0 -14 2 -26 5 -26 3 0 27 21 53 46 26 25 61 53 77 62
62 33 420 25 629 -14 78 -15 165 -46 176 -63 3 -5 39 -24 80 -43 168 -78 259
-176 343 -368 22 -50 25 -53 35 -33 7 11 15 46 18 76 6 49 3 63 -25 122 -58
126 -164 239 -264 284 -36 16 -69 36 -74 44 -18 31 -273 98 -508 134 -16 2
-39 8 -50 13 -74 31 -327 35 -396 6 -34 -14 -78 -64 -91 -101 l-6 -20 -1 20
c-1 23 33 83 58 102 38 30 144 67 216 76 78 10 353 5 460 -7z m-3319 -101 l43
-44 -5 -178 c-6 -175 -15 -246 -34 -258 -12 -7 -14 -2 -30 90 -22 124 -77 233
-130 260 -64 33 -53 -28 20 -117 72 -87 85 -126 101 -293 15 -161 3 -619 -17
-636 -24 -20 -89 -23 -117 -5 -36 25 -73 109 -88 201 -18 114 -18 614 0 730
18 125 53 211 103 258 59 54 97 52 154 -8z m2581 -132 c-3 -10 -5 -4 -5 12 0
17 2 24 5 18 2 -7 2 -21 0 -30z m-335 -55 c69 -39 95 -91 128 -257 53 -269 75
-346 158 -551 34 -83 89 -187 118 -222 12 -15 24 -31 26 -35 7 -18 105 -93
121 -93 9 0 17 -4 17 -8 0 -5 17 -15 38 -24 115 -50 166 -66 233 -72 41 -4 81
-13 89 -21 8 -7 74 -25 145 -40 72 -15 150 -33 175 -39 26 -7 105 -12 185 -12
122 1 145 4 181 22 l41 21 -60 -171 c-32 -94 -81 -234 -107 -311 -27 -77 -62
-173 -79 -214 -17 -41 -31 -78 -31 -83 0 -9 -91 -193 -150 -303 -93 -175 -395
-373 -665 -438 -11 -3 -53 -14 -92 -25 l-73 -21 48 60 c27 33 59 78 71 102
279 518 328 627 356 797 18 103 19 177 4 255 -14 79 -39 125 -93 172 -96 85
-230 126 -465 143 -174 12 -343 28 -391 37 -33 6 -31 7 35 23 124 29 194 80
234 170 22 48 28 144 11 170 -9 13 -10 13 -10 0 0 -31 -58 -137 -89 -163 -18
-15 -57 -34 -88 -43 -123 -36 -403 -5 -536 59 -105 50 -133 83 -158 181 -16
65 -32 45 -31 -40 2 -119 52 -191 185 -265 l52 -30 -40 6 c-57 9 -121 22 -280
61 -227 54 -285 64 -372 64 -143 0 -253 -36 -307 -101 -80 -94 -136 -290 -136
-471 0 -188 90 -703 150 -861 11 -28 20 -53 20 -55 0 -1 -42 23 -93 55 -213
131 -404 302 -498 447 -147 225 -177 442 -159 1135 11 428 18 567 30 590 6 11
12 7 26 -15 10 -16 40 -55 65 -86 37 -47 46 -66 47 -102 1 -24 9 -57 17 -72 8
-16 15 -32 15 -36 0 -27 96 -96 170 -124 100 -37 317 -76 427 -78 28 -1 55 -4
59 -8 10 -11 140 -10 269 2 109 11 142 21 256 85 14 8 79 70 145 137 113 117
175 195 223 284 12 21 35 59 51 84 16 25 33 52 36 60 69 157 129 244 189 271
55 24 109 23 157 -3z m-2029 -208 c8 -30 27 -81 41 -113 33 -74 15 -65 -23 11
-25 50 -52 141 -51 175 1 21 18 -16 33 -73z m2837 21 c15 -30 12 -56 -11 -85
-44 -56 -152 -11 -135 57 10 42 126 64 146 28z m1404 -328 c23 -34 31 -56 33
-105 4 -62 4 -63 -14 -41 -17 20 -21 21 -55 9 -58 -21 -129 -89 -197 -188 -17
-27 -36 -48 -41 -48 -13 0 -12 75 0 165 17 122 20 134 38 139 10 4 45 31 77
61 51 47 65 55 95 52 28 -2 40 -10 64 -44z m-4026 -167 c60 -30 324 -96 492
-121 25 -4 97 -7 160 -7 122 1 218 20 298 61 53 27 61 27 33 -3 -23 -25 -159
-96 -183 -96 -7 0 -23 -6 -34 -14 -33 -24 -226 -17 -339 12 -22 6 -62 13 -90
17 -27 3 -61 10 -75 14 -14 5 -54 17 -90 27 -67 19 -146 61 -190 101 -28 26
-22 29 18 9z m4059 -89 c-11 -125 -73 -340 -170 -593 -49 -127 -78 -181 -126
-235 -69 -78 -137 -93 -185 -40 -19 21 -19 23 34 189 29 92 76 226 105 297 29
72 58 148 65 170 33 104 88 168 182 216 32 16 62 38 68 49 23 42 33 22 27 -53z
m-520 -9 c-34 -61 -111 -147 -122 -137 -2 3 14 28 38 56 24 27 58 73 76 102
46 71 51 56 8 -21z m-1104 -302 c193 -73 385 -100 637 -93 153 5 185 9 254 31
43 15 86 31 96 36 17 9 18 8 7 -13 -24 -45 -59 -87 -73 -87 -8 0 -14 -5 -14
-10 0 -13 -37 -28 -113 -46 -79 -19 -361 -12 -385 9 -10 8 -53 20 -97 27 -44
7 -84 15 -90 19 -5 4 -35 15 -66 25 -31 9 -81 30 -110 46 -30 16 -63 34 -74
39 -21 9 -53 41 -41 41 3 0 34 -11 69 -24z m-1819 -291 c7 -37 73 -125 133
-179 58 -51 144 -106 167 -106 12 0 71 -11 131 -25 152 -35 548 -101 746 -124
90 -11 171 -22 180 -26 20 -8 158 29 226 60 78 35 159 92 181 127 l19 30 20
-21 c49 -53 34 -241 -30 -381 -32 -70 -72 -115 -145 -163 -117 -77 -232 -117
-338 -117 -99 0 -132 15 -204 90 -39 41 -79 72 -100 78 -81 26 -243 53 -350
59 l-115 5 -55 -38 c-53 -37 -58 -39 -135 -39 -69 0 -89 4 -145 31 -86 42
-172 114 -237 198 -64 84 -74 113 -80 237 -8 142 27 278 81 321 31 26 43 22
50 -17z m261 -11 c182 -43 332 -89 495 -151 75 -28 75 -28 325 -28 244 -1 565
-18 622 -34 81 -23 -198 -31 -672 -19 -195 5 -202 5 -284 37 -46 17 -113 36
-150 41 -122 17 -401 112 -529 180 -58 30 -18 25 193 -26z m85 -154 c25 -4 77
-18 115 -30 235 -73 362 -96 760 -135 66 -6 135 -32 163 -61 12 -13 22 -26 22
-29 0 -9 -151 -6 -261 5 -417 42 -895 146 -932 204 -15 22 -15 25 1 39 24 21
44 27 67 20 11 -2 40 -8 65 -13z"/>
<path d="M1010 4095 c0 -29 45 -40 103 -26 93 23 96 24 62 32 -16 4 -60 7 -97
8 -55 1 -68 -2 -68 -14z"/>
<path d="M1160 3701 c-71 -19 -108 -37 -158 -74 -68 -51 -104 -126 -67 -141 8
-3 15 -1 15 4 0 6 27 30 60 54 64 47 172 90 215 84 l25 -3 -24 -36 c-40 -59
-69 -156 -64 -217 3 -29 9 -57 15 -63 18 -18 198 -87 286 -109 65 -16 122 -22
219 -23 l131 -2 24 48 c14 26 27 75 31 109 4 34 12 63 18 65 7 2 34 -26 60
-62 44 -59 50 -64 58 -46 16 37 -38 125 -138 226 -98 98 -162 137 -281 175
-99 32 -330 38 -425 11z m295 -98 c45 -44 36 -105 -18 -131 -37 -18 -82 -1
-102 39 -17 31 -12 53 18 87 25 27 78 30 102 5z"/>
<path d="M4000 3666 c0 -6 133 -83 158 -91 26 -8 80 21 66 35 -5 5 -55 20
-111 34 -106 27 -113 28 -113 22z"/>
<path d="M2198 1623 c7 -3 16 -2 19 1 4 3 -2 6 -13 5 -11 0 -14 -3 -6 -6z"/>
<path d="M2248 1613 c6 -2 18 -2 25 0 6 3 1 5 -13 5 -14 0 -19 -2 -12 -5z"/>
<path d="M2323 1603 c9 -2 23 -2 30 0 6 3 -1 5 -18 5 -16 0 -22 -2 -12 -5z"/>
<path d="M2668 1603 c6 -2 18 -2 25 0 6 3 1 5 -13 5 -14 0 -19 -2 -12 -5z"/>
</g>
</svg>
