<svg id="visual" viewBox="0 0 540 960" width="540" height="960" xmlns="http://www.w3.org/2000/svg" xmlns:xlink="http://www.w3.org/1999/xlink" version="1.1"><g stroke-width="1" stroke-linejoin="bevel"><path d="M285 472L248 493L262 504Z" fill="#4a0082" stroke="#4a0082"></path><path d="M193 464L207 504L248 493Z" fill="#000000" stroke="#000000"></path><path d="M248 493L207 504L262 504Z" fill="#7a1ab0" stroke="#7a1ab0"></path><path d="M285 472L223 432L248 493Z" fill="#7a1ab0" stroke="#7a1ab0"></path><path d="M223 432L193 464L248 493Z" fill="#4a0082" stroke="#4a0082"></path><path d="M166 573L204 552L207 504Z" fill="#20005e" stroke="#20005e"></path><path d="M207 504L204 552L262 504Z" fill="#4a0082" stroke="#4a0082"></path><path d="M285 472L282 381L223 432Z" fill="#57008f" stroke="#57008f"></path><path d="M282 381L213 388L223 432Z" fill="#9229c7" stroke="#9229c7"></path><path d="M223 432L184 388L193 464Z" fill="#000000" stroke="#000000"></path><path d="M379 551L285 472L262 504Z" fill="#9229c7" stroke="#9229c7"></path><path d="M379 551L383 484L285 472Z" fill="#20005e" stroke="#20005e"></path><path d="M285 472L353 398L282 381Z" fill="#000000" stroke="#000000"></path><path d="M184 388L199 389L203 284Z" fill="#4a0082" stroke="#4a0082"></path><path d="M213 388L199 389L223 432Z" fill="#8622bc" stroke="#8622bc"></path><path d="M383 484L353 398L285 472Z" fill="#9229c7" stroke="#9229c7"></path><path d="M204 552L294 603L262 504Z" fill="#6e12a5" stroke="#6e12a5"></path><path d="M203 284L199 389L213 388Z" fill="#2e006a" stroke="#2e006a"></path><path d="M199 389L184 388L223 432Z" fill="#000000" stroke="#000000"></path><path d="M184 388L140 452L193 464Z" fill="#20005e" stroke="#20005e"></path><path d="M193 464L140 452L207 504Z" fill="#2e006a" stroke="#2e006a"></path><path d="M294 603L379 551L262 504Z" fill="#20005e" stroke="#20005e"></path><path d="M95 512L166 573L207 504Z" fill="#7a1ab0" stroke="#7a1ab0"></path><path d="M204 552L206 612L294 603Z" fill="#4a0082" stroke="#4a0082"></path><path d="M166 573L206 612L204 552Z" fill="#2e006a" stroke="#2e006a"></path><path d="M426 524L410 453L383 484Z" fill="#6e12a5" stroke="#6e12a5"></path><path d="M383 484L410 453L353 398Z" fill="#4a0082" stroke="#4a0082"></path><path d="M206 612L271 636L294 603Z" fill="#4a0082" stroke="#4a0082"></path><path d="M294 603L323 638L379 551Z" fill="#20005e" stroke="#20005e"></path><path d="M446 571L426 524L379 551Z" fill="#4a0082" stroke="#4a0082"></path><path d="M379 551L426 524L383 484Z" fill="#4a0082" stroke="#4a0082"></path><path d="M334 306L284 320L282 381Z" fill="#4a0082" stroke="#4a0082"></path><path d="M282 381L284 320L213 388Z" fill="#57008f" stroke="#57008f"></path><path d="M285 310L284 320L334 306Z" fill="#20005e" stroke="#20005e"></path><path d="M271 636L323 638L294 603Z" fill="#2e006a" stroke="#2e006a"></path><path d="M271 636L324 646L323 638Z" fill="#9229c7" stroke="#9229c7"></path><path d="M323 638L446 571L379 551Z" fill="#7a1ab0" stroke="#7a1ab0"></path><path d="M334 306L282 381L353 398Z" fill="#7a1ab0" stroke="#7a1ab0"></path><path d="M284 320L203 284L213 388Z" fill="#3c0076" stroke="#3c0076"></path><path d="M65 416L95 512L140 452Z" fill="#4a0082" stroke="#4a0082"></path><path d="M140 452L95 512L207 504Z" fill="#6e12a5" stroke="#6e12a5"></path><path d="M141 687L231 688L206 612Z" fill="#000000" stroke="#000000"></path><path d="M95 512L96 533L166 573Z" fill="#57008f" stroke="#57008f"></path><path d="M488 455L426 400L410 453Z" fill="#000000" stroke="#000000"></path><path d="M410 453L426 400L353 398Z" fill="#20005e" stroke="#20005e"></path><path d="M94 386L110 396L142 272Z" fill="#62099a" stroke="#62099a"></path><path d="M184 388L110 396L140 452Z" fill="#7a1ab0" stroke="#7a1ab0"></path><path d="M378 321L334 306L353 398Z" fill="#8622bc" stroke="#8622bc"></path><path d="M427 347L378 321L353 398Z" fill="#20005e" stroke="#20005e"></path><path d="M94 386L88 401L110 396Z" fill="#57008f" stroke="#57008f"></path><path d="M110 396L88 401L140 452Z" fill="#57008f" stroke="#57008f"></path><path d="M95 512L38 513L96 533Z" fill="#62099a" stroke="#62099a"></path><path d="M142 272L110 396L184 388Z" fill="#20005e" stroke="#20005e"></path><path d="M400 696L446 571L323 638Z" fill="#000000" stroke="#000000"></path><path d="M426 524L488 455L410 453Z" fill="#6e12a5" stroke="#6e12a5"></path><path d="M102 635L206 612L166 573Z" fill="#000000" stroke="#000000"></path><path d="M206 612L231 688L271 636Z" fill="#7a1ab0" stroke="#7a1ab0"></path><path d="M271 636L287 732L324 646Z" fill="#2e006a" stroke="#2e006a"></path><path d="M264 242L203 284L285 310Z" fill="#3c0076" stroke="#3c0076"></path><path d="M285 310L203 284L284 320Z" fill="#9229c7" stroke="#9229c7"></path><path d="M467 367L427 347L426 400Z" fill="#3c0076" stroke="#3c0076"></path><path d="M426 400L427 347L353 398Z" fill="#57008f" stroke="#57008f"></path><path d="M271 217L293 274L352 203Z" fill="#6e12a5" stroke="#6e12a5"></path><path d="M334 306L293 274L285 310Z" fill="#8622bc" stroke="#8622bc"></path><path d="M369 214L334 306L378 321Z" fill="#2e006a" stroke="#2e006a"></path><path d="M94 386L65 416L88 401Z" fill="#57008f" stroke="#57008f"></path><path d="M88 401L65 416L140 452Z" fill="#6e12a5" stroke="#6e12a5"></path><path d="M503 512L488 455L426 524Z" fill="#57008f" stroke="#57008f"></path><path d="M87 623L166 573L96 533Z" fill="#6e12a5" stroke="#6e12a5"></path><path d="M87 623L102 635L166 573Z" fill="#20005e" stroke="#20005e"></path><path d="M0 553L87 623L96 533Z" fill="#8622bc" stroke="#8622bc"></path><path d="M65 416L38 513L95 512Z" fill="#7a1ab0" stroke="#7a1ab0"></path><path d="M488 455L467 367L426 400Z" fill="#3c0076" stroke="#3c0076"></path><path d="M427 347L433 312L378 321Z" fill="#62099a" stroke="#62099a"></path><path d="M400 696L473 598L446 571Z" fill="#000000" stroke="#000000"></path><path d="M446 571L503 512L426 524Z" fill="#2e006a" stroke="#2e006a"></path><path d="M400 696L323 638L324 646Z" fill="#9229c7" stroke="#9229c7"></path><path d="M514 518L503 512L446 571Z" fill="#3c0076" stroke="#3c0076"></path><path d="M488 455L540 400L467 367Z" fill="#6e12a5" stroke="#6e12a5"></path><path d="M213 221L176 263L203 284Z" fill="#62099a" stroke="#62099a"></path><path d="M203 284L142 272L184 388Z" fill="#2e006a" stroke="#2e006a"></path><path d="M94 386L0 348L65 416Z" fill="#7a1ab0" stroke="#7a1ab0"></path><path d="M467 367L433 312L427 347Z" fill="#20005e" stroke="#20005e"></path><path d="M102 635L141 687L206 612Z" fill="#62099a" stroke="#62099a"></path><path d="M88 672L141 687L102 635Z" fill="#8622bc" stroke="#8622bc"></path><path d="M271 217L264 242L293 274Z" fill="#62099a" stroke="#62099a"></path><path d="M293 274L264 242L285 310Z" fill="#6e12a5" stroke="#6e12a5"></path><path d="M176 263L142 272L203 284Z" fill="#6e12a5" stroke="#6e12a5"></path><path d="M193 741L244 731L231 688Z" fill="#57008f" stroke="#57008f"></path><path d="M231 688L287 732L271 636Z" fill="#20005e" stroke="#20005e"></path><path d="M473 598L514 518L446 571Z" fill="#6e12a5" stroke="#6e12a5"></path><path d="M503 512L540 456L488 455Z" fill="#57008f" stroke="#57008f"></path><path d="M244 731L287 732L231 688Z" fill="#3c0076" stroke="#3c0076"></path><path d="M375 753L400 696L324 646Z" fill="#8622bc" stroke="#8622bc"></path><path d="M130 179L134 269L176 263Z" fill="#6e12a5" stroke="#6e12a5"></path><path d="M176 263L134 269L142 272Z" fill="#6e12a5" stroke="#6e12a5"></path><path d="M142 272L92 287L94 386Z" fill="#57008f" stroke="#57008f"></path><path d="M65 686L88 672L87 623Z" fill="#20005e" stroke="#20005e"></path><path d="M87 623L88 672L102 635Z" fill="#2e006a" stroke="#2e006a"></path><path d="M141 687L193 741L231 688Z" fill="#62099a" stroke="#62099a"></path><path d="M134 269L92 287L142 272Z" fill="#2e006a" stroke="#2e006a"></path><path d="M0 450L0 483L38 513Z" fill="#3c0076" stroke="#3c0076"></path><path d="M369 214L293 274L334 306Z" fill="#3c0076" stroke="#3c0076"></path><path d="M264 242L213 221L203 284Z" fill="#20005e" stroke="#20005e"></path><path d="M0 450L38 513L65 416Z" fill="#8622bc" stroke="#8622bc"></path><path d="M38 513L0 553L96 533Z" fill="#6e12a5" stroke="#6e12a5"></path><path d="M271 217L213 221L264 242Z" fill="#20005e" stroke="#20005e"></path><path d="M134 269L71 225L92 287Z" fill="#9229c7" stroke="#9229c7"></path><path d="M127 761L193 741L141 687Z" fill="#20005e" stroke="#20005e"></path><path d="M244 731L269 791L287 732Z" fill="#3c0076" stroke="#3c0076"></path><path d="M0 348L0 450L65 416Z" fill="#000000" stroke="#000000"></path><path d="M400 696L501 621L473 598Z" fill="#6e12a5" stroke="#6e12a5"></path><path d="M473 598L540 559L514 518Z" fill="#2e006a" stroke="#2e006a"></path><path d="M65 686L86 687L88 672Z" fill="#62099a" stroke="#62099a"></path><path d="M88 672L86 687L141 687Z" fill="#3c0076" stroke="#3c0076"></path><path d="M540 559L540 456L514 518Z" fill="#000000" stroke="#000000"></path><path d="M514 518L540 456L503 512Z" fill="#2e006a" stroke="#2e006a"></path><path d="M477 259L441 262L433 312Z" fill="#9229c7" stroke="#9229c7"></path><path d="M0 483L0 553L38 513Z" fill="#20005e" stroke="#20005e"></path><path d="M477 259L433 312L540 336Z" fill="#62099a" stroke="#62099a"></path><path d="M433 312L441 262L378 321Z" fill="#000000" stroke="#000000"></path><path d="M501 621L540 559L473 598Z" fill="#6e12a5" stroke="#6e12a5"></path><path d="M540 456L540 400L488 455Z" fill="#62099a" stroke="#62099a"></path><path d="M0 640L65 686L87 623Z" fill="#000000" stroke="#000000"></path><path d="M86 687L100 721L141 687Z" fill="#4a0082" stroke="#4a0082"></path><path d="M441 262L369 214L378 321Z" fill="#8622bc" stroke="#8622bc"></path><path d="M65 686L100 721L86 687Z" fill="#4a0082" stroke="#4a0082"></path><path d="M287 732L375 753L324 646Z" fill="#2e006a" stroke="#2e006a"></path><path d="M400 696L425 731L501 621Z" fill="#3c0076" stroke="#3c0076"></path><path d="M324 830L375 753L287 732Z" fill="#8622bc" stroke="#8622bc"></path><path d="M369 214L352 203L293 274Z" fill="#8622bc" stroke="#8622bc"></path><path d="M271 217L212 164L213 221Z" fill="#9229c7" stroke="#9229c7"></path><path d="M375 753L425 731L400 696Z" fill="#3c0076" stroke="#3c0076"></path><path d="M92 287L0 348L94 386Z" fill="#2e006a" stroke="#2e006a"></path><path d="M0 553L0 623L87 623Z" fill="#7a1ab0" stroke="#7a1ab0"></path><path d="M77 786L127 761L100 721Z" fill="#4a0082" stroke="#4a0082"></path><path d="M540 336L433 312L467 367Z" fill="#57008f" stroke="#57008f"></path><path d="M427 171L381 154L369 214Z" fill="#20005e" stroke="#20005e"></path><path d="M381 154L328 154L352 203Z" fill="#2e006a" stroke="#2e006a"></path><path d="M268 802L269 791L262 811Z" fill="#2e006a" stroke="#2e006a"></path><path d="M193 741L269 791L244 731Z" fill="#4a0082" stroke="#4a0082"></path><path d="M540 686L540 626L501 621Z" fill="#4a0082" stroke="#4a0082"></path><path d="M501 621L540 626L540 559Z" fill="#62099a" stroke="#62099a"></path><path d="M0 623L0 640L87 623Z" fill="#3c0076" stroke="#3c0076"></path><path d="M540 400L540 336L467 367Z" fill="#8622bc" stroke="#8622bc"></path><path d="M77 786L100 721L0 763Z" fill="#9229c7" stroke="#9229c7"></path><path d="M100 721L127 761L141 687Z" fill="#2e006a" stroke="#2e006a"></path><path d="M386 788L445 747L425 731Z" fill="#9229c7" stroke="#9229c7"></path><path d="M425 731L540 686L501 621Z" fill="#4a0082" stroke="#4a0082"></path><path d="M386 788L425 731L375 753Z" fill="#4a0082" stroke="#4a0082"></path><path d="M262 811L269 791L193 741Z" fill="#8622bc" stroke="#8622bc"></path><path d="M324 830L386 788L375 753Z" fill="#6e12a5" stroke="#6e12a5"></path><path d="M328 154L212 164L271 217Z" fill="#6e12a5" stroke="#6e12a5"></path><path d="M213 221L130 179L176 263Z" fill="#4a0082" stroke="#4a0082"></path><path d="M92 287L0 269L0 348Z" fill="#000000" stroke="#000000"></path><path d="M130 179L71 225L134 269Z" fill="#2e006a" stroke="#2e006a"></path><path d="M324 830L287 732L269 791Z" fill="#2e006a" stroke="#2e006a"></path><path d="M140 794L262 811L193 741Z" fill="#2e006a" stroke="#2e006a"></path><path d="M268 802L324 830L269 791Z" fill="#4a0082" stroke="#4a0082"></path><path d="M540 336L517 265L477 259Z" fill="#20005e" stroke="#20005e"></path><path d="M381 154L352 203L369 214Z" fill="#6e12a5" stroke="#6e12a5"></path><path d="M0 640L0 682L65 686Z" fill="#8622bc" stroke="#8622bc"></path><path d="M212 164L130 179L213 221Z" fill="#7a1ab0" stroke="#7a1ab0"></path><path d="M369 214L441 262L427 171Z" fill="#6e12a5" stroke="#6e12a5"></path><path d="M352 203L328 154L271 217Z" fill="#57008f" stroke="#57008f"></path><path d="M77 786L140 794L127 761Z" fill="#2e006a" stroke="#2e006a"></path><path d="M127 761L140 794L193 741Z" fill="#7a1ab0" stroke="#7a1ab0"></path><path d="M492 751L540 686L425 731Z" fill="#57008f" stroke="#57008f"></path><path d="M492 751L425 731L445 747Z" fill="#62099a" stroke="#62099a"></path><path d="M0 249L0 269L71 225Z" fill="#6e12a5" stroke="#6e12a5"></path><path d="M71 225L0 269L92 287Z" fill="#9229c7" stroke="#9229c7"></path><path d="M540 336L540 275L517 265Z" fill="#62099a" stroke="#62099a"></path><path d="M427 171L441 262L461 183Z" fill="#7a1ab0" stroke="#7a1ab0"></path><path d="M441 262L477 259L461 183Z" fill="#000000" stroke="#000000"></path><path d="M482 849L492 751L445 747Z" fill="#7a1ab0" stroke="#7a1ab0"></path><path d="M461 183L477 259L540 244Z" fill="#000000" stroke="#000000"></path><path d="M257 860L324 830L262 811Z" fill="#3c0076" stroke="#3c0076"></path><path d="M262 811L324 830L268 802Z" fill="#2e006a" stroke="#2e006a"></path><path d="M386 788L482 849L445 747Z" fill="#57008f" stroke="#57008f"></path><path d="M324 830L382 816L386 788Z" fill="#2e006a" stroke="#2e006a"></path><path d="M0 208L0 249L71 225Z" fill="#3c0076" stroke="#3c0076"></path><path d="M0 763L100 721L65 686Z" fill="#2e006a" stroke="#2e006a"></path><path d="M169 875L257 860L262 811Z" fill="#9229c7" stroke="#9229c7"></path><path d="M540 244L477 259L517 265Z" fill="#000000" stroke="#000000"></path><path d="M405 87L350 91L381 154Z" fill="#000000" stroke="#000000"></path><path d="M540 275L540 244L517 265Z" fill="#9229c7" stroke="#9229c7"></path><path d="M540 818L540 728L492 751Z" fill="#4a0082" stroke="#4a0082"></path><path d="M492 751L540 728L540 686Z" fill="#62099a" stroke="#62099a"></path><path d="M212 164L181 123L130 179Z" fill="#20005e" stroke="#20005e"></path><path d="M130 179L91 156L71 225Z" fill="#9229c7" stroke="#9229c7"></path><path d="M224 93L181 123L212 164Z" fill="#20005e" stroke="#20005e"></path><path d="M224 93L212 164L241 84Z" fill="#20005e" stroke="#20005e"></path><path d="M89 130L91 156L130 179Z" fill="#3c0076" stroke="#3c0076"></path><path d="M169 875L262 811L140 794Z" fill="#9229c7" stroke="#9229c7"></path><path d="M324 830L399 848L382 816Z" fill="#9229c7" stroke="#9229c7"></path><path d="M91 156L0 208L71 225Z" fill="#000000" stroke="#000000"></path><path d="M0 682L0 763L65 686Z" fill="#2e006a" stroke="#2e006a"></path><path d="M95 864L169 875L140 794Z" fill="#000000" stroke="#000000"></path><path d="M399 879L399 848L324 830Z" fill="#000000" stroke="#000000"></path><path d="M382 816L399 848L386 788Z" fill="#7a1ab0" stroke="#7a1ab0"></path><path d="M461 183L484 159L427 171Z" fill="#6e12a5" stroke="#6e12a5"></path><path d="M381 154L338 99L328 154Z" fill="#8622bc" stroke="#8622bc"></path><path d="M540 179L484 159L461 183Z" fill="#9229c7" stroke="#9229c7"></path><path d="M350 91L338 99L381 154Z" fill="#3c0076" stroke="#3c0076"></path><path d="M241 84L212 164L328 154Z" fill="#8622bc" stroke="#8622bc"></path><path d="M181 123L89 130L130 179Z" fill="#7a1ab0" stroke="#7a1ab0"></path><path d="M78 104L89 130L181 123Z" fill="#4a0082" stroke="#4a0082"></path><path d="M91 156L89 130L0 208Z" fill="#2e006a" stroke="#2e006a"></path><path d="M338 99L241 84L328 154Z" fill="#57008f" stroke="#57008f"></path><path d="M122 36L78 104L181 123Z" fill="#4a0082" stroke="#4a0082"></path><path d="M405 87L381 154L427 171Z" fill="#6e12a5" stroke="#6e12a5"></path><path d="M338 99L291 24L241 84Z" fill="#6e12a5" stroke="#6e12a5"></path><path d="M95 864L140 794L77 786Z" fill="#20005e" stroke="#20005e"></path><path d="M307 901L399 879L324 830Z" fill="#8622bc" stroke="#8622bc"></path><path d="M0 763L23 809L77 786Z" fill="#6e12a5" stroke="#6e12a5"></path><path d="M540 244L540 179L461 183Z" fill="#2e006a" stroke="#2e006a"></path><path d="M484 159L405 87L427 171Z" fill="#57008f" stroke="#57008f"></path><path d="M307 901L324 830L257 860Z" fill="#2e006a" stroke="#2e006a"></path><path d="M399 848L482 849L386 788Z" fill="#6e12a5" stroke="#6e12a5"></path><path d="M23 809L95 864L77 786Z" fill="#2e006a" stroke="#2e006a"></path><path d="M233 925L257 860L169 875Z" fill="#2e006a" stroke="#2e006a"></path><path d="M233 925L307 901L257 860Z" fill="#6e12a5" stroke="#6e12a5"></path><path d="M428 35L405 87L540 82Z" fill="#7a1ab0" stroke="#7a1ab0"></path><path d="M279 0L186 61L241 84Z" fill="#4a0082" stroke="#4a0082"></path><path d="M186 61L181 123L224 93Z" fill="#3c0076" stroke="#3c0076"></path><path d="M89 130L0 84L0 208Z" fill="#9229c7" stroke="#9229c7"></path><path d="M478 876L482 849L399 848Z" fill="#57008f" stroke="#57008f"></path><path d="M241 84L186 61L224 93Z" fill="#000000" stroke="#000000"></path><path d="M291 24L338 99L350 91Z" fill="#2e006a" stroke="#2e006a"></path><path d="M482 849L540 818L492 751Z" fill="#4a0082" stroke="#4a0082"></path><path d="M482 849L540 819L540 818Z" fill="#9229c7" stroke="#9229c7"></path><path d="M156 922L233 925L169 875Z" fill="#7a1ab0" stroke="#7a1ab0"></path><path d="M421 924L478 876L399 879Z" fill="#8622bc" stroke="#8622bc"></path><path d="M399 879L478 876L399 848Z" fill="#000000" stroke="#000000"></path><path d="M482 849L540 880L540 819Z" fill="#4a0082" stroke="#4a0082"></path><path d="M421 924L399 879L382 960Z" fill="#57008f" stroke="#57008f"></path><path d="M117 936L156 922L95 864Z" fill="#4a0082" stroke="#4a0082"></path><path d="M95 864L156 922L169 875Z" fill="#6e12a5" stroke="#6e12a5"></path><path d="M23 809L66 891L95 864Z" fill="#9229c7" stroke="#9229c7"></path><path d="M324 0L291 24L350 91Z" fill="#9229c7" stroke="#9229c7"></path><path d="M382 960L399 879L307 901Z" fill="#4a0082" stroke="#4a0082"></path><path d="M122 36L181 123L186 61Z" fill="#2e006a" stroke="#2e006a"></path><path d="M122 36L42 73L78 104Z" fill="#62099a" stroke="#62099a"></path><path d="M78 104L0 84L89 130Z" fill="#6e12a5" stroke="#6e12a5"></path><path d="M182 0L122 36L186 61Z" fill="#20005e" stroke="#20005e"></path><path d="M0 763L0 871L23 809Z" fill="#2e006a" stroke="#2e006a"></path><path d="M23 809L0 871L66 891Z" fill="#6e12a5" stroke="#6e12a5"></path><path d="M66 891L117 936L95 864Z" fill="#62099a" stroke="#62099a"></path><path d="M0 871L0 874L66 891Z" fill="#62099a" stroke="#62099a"></path><path d="M540 82L405 87L484 159Z" fill="#8622bc" stroke="#8622bc"></path><path d="M405 87L375 0L350 91Z" fill="#000000" stroke="#000000"></path><path d="M262 960L267 960L233 925Z" fill="#8622bc" stroke="#8622bc"></path><path d="M233 925L267 960L307 901Z" fill="#9229c7" stroke="#9229c7"></path><path d="M262 960L233 925L152 960Z" fill="#000000" stroke="#000000"></path><path d="M152 960L233 925L156 922Z" fill="#3c0076" stroke="#3c0076"></path><path d="M105 960L117 936L51 960Z" fill="#6e12a5" stroke="#6e12a5"></path><path d="M0 81L0 84L42 73Z" fill="#62099a" stroke="#62099a"></path><path d="M42 73L0 84L78 104Z" fill="#2e006a" stroke="#2e006a"></path><path d="M540 960L540 880L478 876Z" fill="#20005e" stroke="#20005e"></path><path d="M478 876L540 880L482 849Z" fill="#8622bc" stroke="#8622bc"></path><path d="M0 0L0 81L42 73Z" fill="#20005e" stroke="#20005e"></path><path d="M324 0L279 0L291 24Z" fill="#4a0082" stroke="#4a0082"></path><path d="M291 24L279 0L241 84Z" fill="#4a0082" stroke="#4a0082"></path><path d="M540 179L540 82L484 159Z" fill="#20005e" stroke="#20005e"></path><path d="M375 0L324 0L350 91Z" fill="#8622bc" stroke="#8622bc"></path><path d="M105 960L152 960L117 936Z" fill="#8622bc" stroke="#8622bc"></path><path d="M117 936L152 960L156 922Z" fill="#9229c7" stroke="#9229c7"></path><path d="M267 960L382 960L307 901Z" fill="#62099a" stroke="#62099a"></path><path d="M421 924L467 960L478 876Z" fill="#6e12a5" stroke="#6e12a5"></path><path d="M279 0L182 0L186 61Z" fill="#000000" stroke="#000000"></path><path d="M122 36L72 0L42 73Z" fill="#62099a" stroke="#62099a"></path><path d="M426 0L375 0L428 35Z" fill="#9229c7" stroke="#9229c7"></path><path d="M428 35L375 0L405 87Z" fill="#57008f" stroke="#57008f"></path><path d="M540 82L509 26L428 35Z" fill="#20005e" stroke="#20005e"></path><path d="M382 960L425 960L421 924Z" fill="#9229c7" stroke="#9229c7"></path><path d="M51 960L117 936L66 891Z" fill="#2e006a" stroke="#2e006a"></path><path d="M502 0L426 0L428 35Z" fill="#20005e" stroke="#20005e"></path><path d="M182 0L92 0L122 36Z" fill="#6e12a5" stroke="#6e12a5"></path><path d="M425 960L467 960L421 924Z" fill="#4a0082" stroke="#4a0082"></path><path d="M540 66L509 26L540 82Z" fill="#2e006a" stroke="#2e006a"></path><path d="M92 0L72 0L122 36Z" fill="#20005e" stroke="#20005e"></path><path d="M0 960L51 960L66 891Z" fill="#8622bc" stroke="#8622bc"></path><path d="M540 0L502 0L509 26Z" fill="#4a0082" stroke="#4a0082"></path><path d="M509 26L502 0L428 35Z" fill="#57008f" stroke="#57008f"></path><path d="M0 874L0 960L66 891Z" fill="#6e12a5" stroke="#6e12a5"></path><path d="M467 960L540 960L478 876Z" fill="#57008f" stroke="#57008f"></path><path d="M72 0L0 0L42 73Z" fill="#57008f" stroke="#57008f"></path><path d="M540 66L540 0L509 26Z" fill="#6e12a5" stroke="#6e12a5"></path></g></svg>