<svg id="visual" viewBox="0 0 300 1000" width="300" height="1000" xmlns="http://www.w3.org/2000/svg" xmlns:xlink="http://www.w3.org/1999/xlink" version="1.1"><path d="M48 1000L88 1000L88 923L60 923L60 846L52 846L52 769L102 769L102 692L83 692L83 615L95 615L95 538L66 538L66 462L111 462L111 385L53 385L53 308L42 308L42 231L90 231L90 154L75 154L75 77L95 77L95 0L300 0L300 77L300 77L300 154L300 154L300 231L300 231L300 308L300 308L300 385L300 385L300 462L300 462L300 538L300 538L300 615L300 615L300 692L300 692L300 769L300 769L300 846L300 846L300 923L300 923L300 1000L300 1000Z" fill="#9900ff"></path><path d="M137 1000L146 1000L146 923L98 923L98 846L112 846L112 769L106 769L106 692L128 692L128 615L118 615L118 538L119 538L119 462L142 462L142 385L97 385L97 308L143 308L143 231L125 231L125 154L107 154L107 77L118 77L118 0L300 0L300 77L300 77L300 154L300 154L300 231L300 231L300 308L300 308L300 385L300 385L300 462L300 462L300 538L300 538L300 615L300 615L300 692L300 692L300 769L300 769L300 846L300 846L300 923L300 923L300 1000L300 1000Z" fill="#8800e2"></path><path d="M166 1000L139 1000L139 923L161 923L161 846L198 846L198 769L189 769L189 692L156 692L156 615L153 615L153 538L197 538L197 462L186 462L186 385L181 385L181 308L198 308L198 231L143 231L143 154L162 154L162 77L190 77L190 0L300 0L300 77L300 77L300 154L300 154L300 231L300 231L300 308L300 308L300 385L300 385L300 462L300 462L300 538L300 538L300 615L300 615L300 692L300 692L300 769L300 769L300 846L300 846L300 923L300 923L300 1000L300 1000Z" fill="#7700c6"></path><path d="M234 1000L229 1000L229 923L202 923L202 846L200 846L200 769L220 769L220 692L187 692L187 615L205 615L205 538L215 538L215 462L222 462L222 385L182 385L182 308L192 308L192 231L203 231L203 154L193 154L193 77L210 77L210 0L300 0L300 77L300 77L300 154L300 154L300 231L300 231L300 308L300 308L300 385L300 385L300 462L300 462L300 538L300 538L300 615L300 615L300 692L300 692L300 769L300 769L300 846L300 846L300 923L300 923L300 1000L300 1000Z" fill="#6600ab"></path><path d="M263 1000L252 1000L252 923L252 923L252 846L271 846L271 769L235 769L235 692L263 692L263 615L256 615L256 538L239 538L239 462L239 462L239 385L231 385L231 308L276 308L276 231L228 231L228 154L253 154L253 77L254 77L254 0L300 0L300 77L300 77L300 154L300 154L300 231L300 231L300 308L300 308L300 385L300 385L300 462L300 462L300 538L300 538L300 615L300 615L300 692L300 692L300 769L300 769L300 846L300 846L300 923L300 923L300 1000L300 1000Z" fill="#560090"></path></svg>