<svg id="visual" viewBox="0 0 300 1000" width="300" height="1000" xmlns="http://www.w3.org/2000/svg" xmlns:xlink="http://www.w3.org/1999/xlink" version="1.1"><path d="M254 0L214 0L214 77L242 77L242 154L250 154L250 231L200 231L200 308L219 308L219 385L207 385L207 462L236 462L236 538L191 538L191 615L249 615L249 692L260 692L260 769L212 769L212 846L227 846L227 923L207 923L207 1000L0 1000L0 923L0 923L0 846L0 846L0 769L0 769L0 692L0 692L0 615L0 615L0 538L0 538L0 462L0 462L0 385L0 385L0 308L0 308L0 231L0 231L0 154L0 154L0 77L0 77L0 0L0 0Z" fill="#9900ff"></path><path d="M165 0L156 0L156 77L204 77L204 154L190 154L190 231L196 231L196 308L174 308L174 385L184 385L184 462L183 462L183 538L160 538L160 615L205 615L205 692L159 692L159 769L177 769L177 846L195 846L195 923L184 923L184 1000L0 1000L0 923L0 923L0 846L0 846L0 769L0 769L0 692L0 692L0 615L0 615L0 538L0 538L0 462L0 462L0 385L0 385L0 308L0 308L0 231L0 231L0 154L0 154L0 77L0 77L0 0L0 0Z" fill="#8800e2"></path><path d="M136 0L163 0L163 77L141 77L141 154L104 154L104 231L113 231L113 308L146 308L146 385L149 385L149 462L105 462L105 538L116 538L116 615L121 615L121 692L104 692L104 769L159 769L159 846L140 846L140 923L112 923L112 1000L0 1000L0 923L0 923L0 846L0 846L0 769L0 769L0 692L0 692L0 615L0 615L0 538L0 538L0 462L0 462L0 385L0 385L0 308L0 308L0 231L0 231L0 154L0 154L0 77L0 77L0 0L0 0Z" fill="#7700c6"></path><path d="M69 0L73 0L73 77L100 77L100 154L102 154L102 231L82 231L82 308L115 308L115 385L97 385L97 462L87 462L87 538L80 538L80 615L120 615L120 692L110 692L110 769L99 769L99 846L109 846L109 923L92 923L92 1000L0 1000L0 923L0 923L0 846L0 846L0 769L0 769L0 692L0 692L0 615L0 615L0 538L0 538L0 462L0 462L0 385L0 385L0 308L0 308L0 231L0 231L0 154L0 154L0 77L0 77L0 0L0 0Z" fill="#6600ab"></path><path d="M39 0L50 0L50 77L50 77L50 154L31 154L31 231L67 231L67 308L39 308L39 385L46 385L46 462L63 462L63 538L63 538L63 615L71 615L71 692L26 692L26 769L74 769L74 846L49 846L49 923L48 923L48 1000L0 1000L0 923L0 923L0 846L0 846L0 769L0 769L0 692L0 692L0 615L0 615L0 538L0 538L0 462L0 462L0 385L0 385L0 308L0 308L0 231L0 231L0 154L0 154L0 77L0 77L0 0L0 0Z" fill="#560090"></path></svg>