<svg id="visual" viewBox="0 0 900 200" width="900" height="200" xmlns="http://www.w3.org/2000/svg" xmlns:xlink="http://www.w3.org/1999/xlink" version="1.1"><g stroke-width="1" stroke-linejoin="bevel"><path d="M421.7 114L432 148L488 130Z" fill="#575a5d" stroke="#c76a34"></path><path d="M488 130L470.3 74L421.7 114Z" fill="#626569" stroke="#c76a34"></path><path d="M470.3 74L400.7 73L421.7 114Z" fill="#414447" stroke="#c76a34"></path><path d="M379.7 200L411 200L432 148Z" fill="#6e7175" stroke="#c76a34"></path><path d="M488 130L533.3 107L470.3 74Z" fill="#222527" stroke="#c76a34"></path><path d="M533.6 113L533.3 107L488 130Z" fill="#0d1114" stroke="#c76a34"></path><path d="M379.7 200L432 148L421.7 114Z" fill="#181b1e" stroke="#c76a34"></path><path d="M432 148L545.6 200L488 130Z" fill="#36393c" stroke="#c76a34"></path><path d="M488 130L554.3 147L533.6 113Z" fill="#181b1e" stroke="#c76a34"></path><path d="M545.6 200L554.3 147L488 130Z" fill="#36393c" stroke="#c76a34"></path><path d="M533.6 113L569.6 71L533.3 107Z" fill="#222527" stroke="#c76a34"></path><path d="M431.7 0L373.7 53L400.7 73Z" fill="#222527" stroke="#c76a34"></path><path d="M355.4 200L379.7 200L421.7 114Z" fill="#2c2f31" stroke="#c76a34"></path><path d="M355.4 200L421.7 114L328.4 187Z" fill="#6e7175" stroke="#c76a34"></path><path d="M411 200L545.6 200L432 148Z" fill="#000000" stroke="#c76a34"></path><path d="M477 1L453 0L470.3 74Z" fill="#4c4f52" stroke="#c76a34"></path><path d="M470.3 74L431.7 0L400.7 73Z" fill="#181b1e" stroke="#c76a34"></path><path d="M566.6 42L477 1L470.3 74Z" fill="#222527" stroke="#c76a34"></path><path d="M453 0L431.7 0L470.3 74Z" fill="#6e7175" stroke="#c76a34"></path><path d="M554.3 147L569.6 71L533.6 113Z" fill="#000000" stroke="#c76a34"></path><path d="M533.3 107L566.6 42L470.3 74Z" fill="#222527" stroke="#c76a34"></path><path d="M622.9 68L569.6 71L554.3 147Z" fill="#414447" stroke="#c76a34"></path><path d="M328.4 187L421.7 114L400.7 73Z" fill="#36393c" stroke="#c76a34"></path><path d="M545.6 200L559.3 200L554.3 147Z" fill="#4c4f52" stroke="#c76a34"></path><path d="M569.6 71L566.6 42L533.3 107Z" fill="#000000" stroke="#c76a34"></path><path d="M314.4 65L328.4 187L400.7 73Z" fill="#6e7175" stroke="#c76a34"></path><path d="M331.4 0L314.4 65L373.7 53Z" fill="#575a5d" stroke="#c76a34"></path><path d="M373.7 53L314.4 65L400.7 73Z" fill="#222527" stroke="#c76a34"></path><path d="M566.6 42L551.3 0L477 1Z" fill="#4c4f52" stroke="#c76a34"></path><path d="M477 1L551.3 0L453 0Z" fill="#000000" stroke="#c76a34"></path><path d="M609.9 0L562.6 0L566.6 42Z" fill="#0d1114" stroke="#c76a34"></path><path d="M566.6 42L562.6 0L551.3 0Z" fill="#6e7175" stroke="#c76a34"></path><path d="M314.4 65L287.1 155L328.4 187Z" fill="#575a5d" stroke="#c76a34"></path><path d="M431.7 0L331.4 0L373.7 53Z" fill="#6e7175" stroke="#c76a34"></path><path d="M314.4 65L276.4 131L287.1 155Z" fill="#0d1114" stroke="#c76a34"></path><path d="M666.9 116L622.9 68L554.3 147Z" fill="#575a5d" stroke="#c76a34"></path><path d="M569.6 71L622.9 68L566.6 42Z" fill="#626569" stroke="#c76a34"></path><path d="M237.1 78L276.4 131L314.4 65Z" fill="#222527" stroke="#c76a34"></path><path d="M198.9 183L282.1 200L287.1 155Z" fill="#222527" stroke="#c76a34"></path><path d="M287.1 155L282.1 200L328.4 187Z" fill="#36393c" stroke="#c76a34"></path><path d="M328.4 187L282.1 200L355.4 200Z" fill="#0d1114" stroke="#c76a34"></path><path d="M622.9 68L609.9 0L566.6 42Z" fill="#4c4f52" stroke="#c76a34"></path><path d="M559.3 200L637.9 200L554.3 147Z" fill="#4c4f52" stroke="#c76a34"></path><path d="M331.4 0L282.1 0L314.4 65Z" fill="#4c4f52" stroke="#c76a34"></path><path d="M637.9 200L666.9 116L554.3 147Z" fill="#000000" stroke="#c76a34"></path><path d="M622.9 68L733.1 63L609.9 0Z" fill="#0d1114" stroke="#c76a34"></path><path d="M282.1 0L248.1 58L314.4 65Z" fill="#2c2f31" stroke="#c76a34"></path><path d="M276.4 131L198.9 183L287.1 155Z" fill="#4c4f52" stroke="#c76a34"></path><path d="M248.1 58L237.1 78L314.4 65Z" fill="#414447" stroke="#c76a34"></path><path d="M698.1 145L679.9 94L666.9 116Z" fill="#626569" stroke="#c76a34"></path><path d="M666.9 116L679.9 94L622.9 68Z" fill="#181b1e" stroke="#c76a34"></path><path d="M637.9 200L698.1 145L666.9 116Z" fill="#36393c" stroke="#c76a34"></path><path d="M637.9 200L695.1 200L698.1 145Z" fill="#222527" stroke="#c76a34"></path><path d="M199.9 30L237.1 78L248.1 58Z" fill="#414447" stroke="#c76a34"></path><path d="M174.6 115L195.9 129L237.1 78Z" fill="#4c4f52" stroke="#c76a34"></path><path d="M237.1 78L195.9 129L276.4 131Z" fill="#222527" stroke="#c76a34"></path><path d="M195.9 129L198.9 183L276.4 131Z" fill="#000000" stroke="#c76a34"></path><path d="M747.4 200L723.1 118L698.1 145Z" fill="#575a5d" stroke="#c76a34"></path><path d="M698.1 145L723.1 118L679.9 94Z" fill="#575a5d" stroke="#c76a34"></path><path d="M679.9 94L733.1 63L622.9 68Z" fill="#2c2f31" stroke="#c76a34"></path><path d="M282.1 0L199.9 30L248.1 58Z" fill="#000000" stroke="#c76a34"></path><path d="M199.9 30L174.6 115L237.1 78Z" fill="#414447" stroke="#c76a34"></path><path d="M195.9 129L166.9 200L198.9 183Z" fill="#181b1e" stroke="#c76a34"></path><path d="M723.1 118L733.1 63L679.9 94Z" fill="#36393c" stroke="#c76a34"></path><path d="M174.6 115L166.9 200L195.9 129Z" fill="#36393c" stroke="#c76a34"></path><path d="M198.9 183L166.9 200L282.1 200Z" fill="#0d1114" stroke="#c76a34"></path><path d="M695.1 200L747.4 200L698.1 145Z" fill="#2c2f31" stroke="#c76a34"></path><path d="M723.1 118L779.4 81L733.1 63Z" fill="#222527" stroke="#c76a34"></path><path d="M199.9 30L127.6 74L174.6 115Z" fill="#36393c" stroke="#c76a34"></path><path d="M96.3 123L110.6 200L166.9 200Z" fill="#181b1e" stroke="#c76a34"></path><path d="M282.1 0L158.9 0L199.9 30Z" fill="#4c4f52" stroke="#c76a34"></path><path d="M747.4 200L778.4 133L723.1 118Z" fill="#222527" stroke="#c76a34"></path><path d="M779.4 81L755.1 0L733.1 63Z" fill="#181b1e" stroke="#c76a34"></path><path d="M733.1 63L755.1 0L609.9 0Z" fill="#626569" stroke="#c76a34"></path><path d="M778.4 133L779.4 81L723.1 118Z" fill="#4c4f52" stroke="#c76a34"></path><path d="M158.9 0L127.6 74L199.9 30Z" fill="#414447" stroke="#c76a34"></path><path d="M805.4 166L802.7 135L778.4 133Z" fill="#181b1e" stroke="#c76a34"></path><path d="M778.4 133L802.7 135L779.4 81Z" fill="#000000" stroke="#c76a34"></path><path d="M779.4 81L793.4 0L755.1 0Z" fill="#2c2f31" stroke="#c76a34"></path><path d="M96.3 123L166.9 200L174.6 115Z" fill="#626569" stroke="#c76a34"></path><path d="M747.4 200L805.4 166L778.4 133Z" fill="#2c2f31" stroke="#c76a34"></path><path d="M805.4 166L808.7 136L802.7 135Z" fill="#222527" stroke="#c76a34"></path><path d="M802.7 135L808.7 136L779.4 81Z" fill="#2c2f31" stroke="#c76a34"></path><path d="M747.4 200L802.7 200L805.4 166Z" fill="#36393c" stroke="#c76a34"></path><path d="M900 119L875.7 33L808.7 136Z" fill="#4c4f52" stroke="#c76a34"></path><path d="M158.9 0L114.6 10L127.6 74Z" fill="#626569" stroke="#c76a34"></path><path d="M127.6 74L96.3 123L174.6 115Z" fill="#575a5d" stroke="#c76a34"></path><path d="M60.3 100L96.3 123L127.6 74Z" fill="#575a5d" stroke="#c76a34"></path><path d="M820.7 0L793.4 0L779.4 81Z" fill="#4c4f52" stroke="#c76a34"></path><path d="M158.9 0L110.3 5L114.6 10Z" fill="#6e7175" stroke="#c76a34"></path><path d="M114.6 10L91.6 0L127.6 74Z" fill="#414447" stroke="#c76a34"></path><path d="M158.9 0L91.6 0L110.3 5Z" fill="#4c4f52" stroke="#c76a34"></path><path d="M110.3 5L91.6 0L114.6 10Z" fill="#000000" stroke="#c76a34"></path><path d="M875.7 33L820.7 0L779.4 81Z" fill="#575a5d" stroke="#c76a34"></path><path d="M91.6 0L60.3 100L127.6 74Z" fill="#2c2f31" stroke="#c76a34"></path><path d="M96.3 123L56.3 200L110.6 200Z" fill="#414447" stroke="#c76a34"></path><path d="M60.3 100L56.3 200L96.3 123Z" fill="#6e7175" stroke="#c76a34"></path><path d="M91.6 0L49.3 0L60.3 100Z" fill="#36393c" stroke="#c76a34"></path><path d="M60.3 100L0 180L56.3 200Z" fill="#0d1114" stroke="#c76a34"></path><path d="M900 119L808.7 136L900 178Z" fill="#575a5d" stroke="#c76a34"></path><path d="M808.7 136L875.7 33L779.4 81Z" fill="#4c4f52" stroke="#c76a34"></path><path d="M900 178L808.7 136L805.4 166Z" fill="#36393c" stroke="#c76a34"></path><path d="M802.7 200L900 178L805.4 166Z" fill="#181b1e" stroke="#c76a34"></path><path d="M802.7 200L900 200L900 178Z" fill="#222527" stroke="#c76a34"></path><path d="M900 119L900 25L875.7 33Z" fill="#36393c" stroke="#c76a34"></path><path d="M875.7 33L900 0L820.7 0Z" fill="#2c2f31" stroke="#c76a34"></path><path d="M0 68L0 90L60.3 100Z" fill="#6e7175" stroke="#c76a34"></path><path d="M49.3 0L0 68L60.3 100Z" fill="#6e7175" stroke="#c76a34"></path><path d="M0 90L0 180L60.3 100Z" fill="#0d1114" stroke="#c76a34"></path><path d="M0 180L0 200L56.3 200Z" fill="#222527" stroke="#c76a34"></path><path d="M900 25L900 0L875.7 33Z" fill="#626569" stroke="#c76a34"></path><path d="M49.3 0L0 0L0 68Z" fill="#414447" stroke="#c76a34"></path></g></svg>